<svg width="80" height="80" viewBox="0 0 80 80" fill="none" xmlns="http://www.w3.org/2000/svg">
<path d="M53.3333 27.4846V51.6667C53.3333 63.6331 43.633 73.3334 31.6667 73.3334C19.7005 73.3334 10 63.6331 10 51.6667C10 39.7004 19.7005 30.0001 31.6667 30.0001C33.3877 30.0001 35.0617 30.2007 36.6667 30.5798V41.1227C35.1513 40.4027 33.456 40.0001 31.6667 40.0001C25.2233 40.0001 20 45.2234 20 51.6667C20 58.1101 25.2233 63.3334 31.6667 63.3334C38.11 63.3334 43.3333 58.1101 43.3333 51.6667V6.66675H53.3333C53.3333 15.8715 60.7953 23.3334 70 23.3334V33.3334C63.6937 33.3334 57.8987 31.1443 53.3333 27.4846Z" fill="white"/>
</svg>
